#!OML:ASF F:\VICON\USERDATA\INSTALL\rory3\rory3.ASF
:FULLY-SPECIFIED
:DEGREES
857
root 6.80727 16.9577 15.4868 -335.852 -40.6285 350.125
lowerback -5.15281 1.69653 7.18672
upperback -11.412 2.19535 1.98982
thorax -9.0652 0.463167 -1.91648
lowerneck -6.36042 12.3811 7.57251
upperneck 32.9197 19.1307 -7.98743
head 13.8129 8.30536 -1.6821
rclavicle 1.0107e-013 3.47873e-014
rhumerus -62.9409 54.6315 -73.8153
rradius 110.636
rwrist -67.7545
rhand 25.5404 1.26022
rfingers 7.12502
rthumb 49.6568 -20.1409
lclavicle 1.0107e-013 3.47873e-014
lhumerus -23.5136 -79.0556 58.7431
lradius 101.952
lwrist 64.1075
lhand 35.9896 28.7889
lfingers 7.12502
lthumb 58.9959 43.5818
rfemur -39.1854 -11.3929 25.4316
rtibia 58.1515
rfoot -1.60616 -28.0627
rtoes 12.792
lfemur -42.1249 3.50867 -19.2909
ltibia 44.1598
lfoot -22.1277 23.4285
ltoes -23.3992
858
root 6.83036 16.9013 15.5978 -335.961 -39.1039 350.144
lowerback -5.27791 1.89368 7.39975
upperback -11.0942 2.43754 1.7608
thorax -8.59686 0.585958 -2.28013
lowerneck -6.96625 11.8795 6.99072
upperneck 32.89 18.3266 -7.55145
head 13.7137 7.92668 -1.52622
rclavicle 9.76172e-014 3.28554e-014
rhumerus -62.1346 53.0976 -74.426
rradius 109.697
rwrist -68.9853
rhand 24.443 1.58338
rfingers 7.12502
rthumb 48.6493 -20.3207
lclavicle 9.76172e-014 3.28554e-014
lhumerus -24.3892 -78.1709 59.991
lradius 101.672
lwrist 64.5333
lhand 36.3657 28.4752
lfingers 7.12502
lthumb 59.3204 42.9496
rfemur -40.0777 -11.2627 25.2533
rtibia 58.3564
rfoot -3.79411 -26.4015
rtoes 10.3971
lfemur -42.2817 3.92935 -19.6953
ltibia 44.5928
lfoot -22.9537 21.9167
ltoes -23.3265
859
root 6.85244 16.8429 15.6978 -335.913 -37.5276 349.919
lowerback -5.36891 2.01857 7.70938
upperback -10.602 2.5796 1.54883
thorax -7.96122 0.666548 -2.6739
lowerneck -8.09791 11.5129 7.00744
upperneck 32.8997 17.7441 -7.5031
head 13.8962 7.64201 -1.53025
rclavicle -5.75979e-014 -4.47266e-015
rhumerus -60.6712 51.5478 -74.795
rradius 108.539
rwrist -70.5551
rhand 23.6208 2.12773
rfingers 7.12502
rthumb 47.892 -20.1353
lclavicle -5.75979e-014 -4.47266e-015
lhumerus -23.9085 -77.7296 59.7352
lradius 101.829
lwrist 65.5191
lhand 35.3798 28.0108
lfingers 7.12502
lthumb 58.4675 43.3051
rfemur -40.9704 -10.7732 25.2584
rtibia 58.3392
rfoot -6.73719 -26.6547
rtoes 11.7067
lfemur -42.5465 4.60555 -19.9284
ltibia 45.1732
lfoot -23.9671 19.6482
ltoes -20.5049
860
root 6.87367 16.7989 15.8008 -336.092 -36.1471 350.027
lowerback -5.58935 2.04888 7.7307
upperback -9.79198 2.56416 1.20523
thorax -6.91834 0.714556 -3.03636
lowerneck -9.98504 11.2884 7.37538
upperneck 32.8725 17.3474 -7.69792
head 14.3205 7.41819 -1.60379
rclavicle 1.42504e-014 1.17283e-014
rhumerus -58.0263 49.995 -74.7325
rradius 107.047
rwrist -72.4242
rhand 23.1572 2.57209
rfingers 7.12502
rthumb 47.4641 -19.8869
lclavicle 1.42504e-014 1.17283e-014
lhumerus -21.2272 -76.8626 57.2211
lradius 101.855
lwrist 66.5808
lhand 35.1845 27.2092
lfingers 7.12502
lthumb 58.2978 42.6603
rfemur -41.7958 -10.0477 24.9514
rtibia 57.7814
rfoot -8.63509 -27.5864
rtoes 9.64003
lfemur -42.7499 5.20998 -20.4628
ltibia 45.7343
lfoot -24.2042 17.9635
ltoes -19.2555
861
root 6.89879 16.7098 15.7641 -336.523 -34.9569 350.514
lowerback -3.65609 2.10674 6.38983
upperback -10.1189 2.85142 1.14606
thorax -8.39508 0.900823 -2.43337
lowerneck -9.91412 10.7255 7.05197
upperneck 33.0238 16.5691 -7.58767
head 14.2426 7.06356 -1.65848
rclavicle -5.18331e-014 -8.94531e-015
rhumerus -58.1784 48.3857 -75.9202
rradius 105.929
rwrist -74.2665
rhand 22.6479 2.52762
rfingers 7.12502
rthumb 46.9934 -20.1415
lclavicle -5.18331e-014 -8.94531e-015
lhumerus -23.6122 -76.9084 60.5702
lradius 101.887
lwrist 67.634
lhand 33.278 27.4479
lfingers 7.12502
lthumb 56.6274 44.3402
rfemur -43.64 -7.19305 24.4471
rtibia 57.3953
rfoot -10.9596 -30.6063
rtoes 12.0971
lfemur -43.8941 5.81483 -21.0022
ltibia 46.4669
lfoot -23.4601 17.3885
ltoes -20.4116
